<?xml version="1.0" encoding="iso-8859-1"?>
<!-- Uploaded to: SVG Repo, www.svgrepo.com, Generator: SVG Repo Mixer Tools -->
<svg version="1.1" id="Layer_1" xmlns="http://www.w3.org/2000/svg" xmlns:xlink="http://www.w3.org/1999/xlink" 
	 viewBox="0 0 512 512" xml:space="preserve">
<rect x="10.199" y="103.695" style="fill:#FFF1B8;" width="491.602" height="304.609"/>
<polygon style="fill:#7ACBFF;" points="501.801,103.694 10.199,103.694 256,319.335 "/>
<g>
	<path style="fill:#0B6699;" d="M501.801,93.495H10.199C4.567,93.495,0,98.061,0,103.694v304.611
		c0,5.633,4.567,10.199,10.199,10.199h491.602c5.632,0,10.199-4.566,10.199-10.199V103.694
		C512,98.061,507.433,93.495,501.801,93.495z M20.398,126.21l176.213,154.591L20.398,389.988V126.21z M256,305.767L37.29,113.893
		h437.42L256,305.767z M212.642,294.865l36.631,32.137c1.925,1.688,4.324,2.532,6.726,2.532c2.402,0,4.802-0.844,6.726-2.532
		l36.632-32.138l166.617,103.241H46.025L212.642,294.865z M315.389,280.8l176.213-154.59v263.778L315.389,280.8z"/>
	<path style="fill:#0B6699;" d="M471.139,249.822c-5.632,0-10.199,4.566-10.199,10.199v89.474c0,5.633,4.567,10.199,10.199,10.199
		c5.632,0,10.199-4.566,10.199-10.199v-89.474C481.338,254.389,476.771,249.822,471.139,249.822z"/>
	<path style="fill:#0B6699;" d="M471.139,212.625c-5.632,0-10.199,4.566-10.199,10.199v6.033c0,5.633,4.567,10.199,10.199,10.199
		c5.632,0,10.199-4.566,10.199-10.199v-6.033C481.338,217.191,476.771,212.625,471.139,212.625z"/>
</g>
</svg>