<?xml version="1.0" encoding="iso-8859-1"?>
<!-- Uploaded to: SVG Repo, www.svgrepo.com, Generator: SVG Repo Mixer Tools -->
<svg height="800px" width="800px" version="1.1" id="Layer_1" xmlns="http://www.w3.org/2000/svg" xmlns:xlink="http://www.w3.org/1999/xlink" 
	 viewBox="0 0 512 512" xml:space="preserve">
<path style="fill:#FFF1B8;" d="M344.832,501.801H167.968c-25.512,0-46.314-20.451-46.747-45.961L114.68,70.328
	c-0.561-33.041,26.069-60.128,59.116-60.128h164.409c32.999,0,59.609,27.011,59.119,60.005l-5.743,385.539
	C391.199,481.29,370.382,501.801,344.832,501.801z"/>
<g>
	<path style="fill:#7ACBFF;" d="M332.317,224.382H180.579c-14.488,0-26.292-11.633-26.502-26.12l-1.272-87.741
		c-0.214-14.787,11.714-26.888,26.502-26.888h154.282c14.788,0,26.716,12.101,26.502,26.888l-1.272,87.741
		C358.608,212.749,346.805,224.382,332.317,224.382z"/>
	<polygon style="fill:#7ACBFF;" points="168.734,265.179 168.734,294.757 240.129,294.757 210.551,265.179 	"/>
	<polygon style="fill:#7ACBFF;" points="344.161,294.757 302.344,294.757 272.766,265.179 344.161,265.179 	"/>
</g>
<g>
	<path style="fill:#0B6699;" d="M344.832,512H167.968c-15.03,0-29.211-5.803-39.928-16.34
		c-10.717-10.537-16.761-24.617-17.017-39.645l-6.542-385.514c-0.318-18.737,6.743-36.415,19.88-49.778
		C137.5,7.36,155.056,0,173.796,0h164.408c18.714,0,36.251,7.341,49.385,20.672c13.132,13.33,20.211,30.975,19.932,49.685
		l-5.743,385.539C401.317,486.831,375.771,512,344.832,512z M173.796,20.398c-13.226,0-25.616,5.193-34.888,14.625
		s-14.255,21.907-14.03,35.131l6.541,385.514c0.337,19.814,16.733,35.934,36.55,35.934h176.863c19.858,0,36.254-16.154,36.55-36.01
		l5.743-385.539c0.197-13.205-4.799-25.658-14.067-35.065c-9.269-9.408-21.647-14.589-34.854-14.589H173.796z"/>
	<path style="fill:#0B6699;" d="M332.316,234.582H180.579c-19.948,0-36.41-16.227-36.7-36.171l-1.271-87.741
		c-0.144-9.903,3.606-19.243,10.559-26.297c6.952-7.054,16.235-10.939,26.14-10.939h154.282c9.904,0,19.188,3.885,26.141,10.939
		c6.952,7.054,10.702,16.392,10.559,26.297l-1.271,87.741C368.727,218.355,352.264,234.582,332.316,234.582z M179.307,93.833
		c-4.399,0-8.523,1.726-11.613,4.859c-3.088,3.134-4.754,7.282-4.691,11.682l1.271,87.741c0.129,8.86,7.442,16.069,16.303,16.069
		h151.738c8.861,0,16.175-7.209,16.303-16.069l1.271-87.741c0.064-4.399-1.602-8.548-4.691-11.682
		c-3.086-3.133-7.211-4.859-11.611-4.859H179.307z"/>
	<path style="fill:#0B6699;" d="M196.602,348.634h-26.114c-5.632,0-10.199-4.566-10.199-10.199s4.567-10.199,10.199-10.199h26.114
		c5.632,0,10.199,4.566,10.199,10.199S202.234,348.634,196.602,348.634z"/>
	<path style="fill:#0B6699;" d="M269.504,348.634h-26.115c-5.632,0-10.199-4.566-10.199-10.199s4.567-10.199,10.199-10.199h26.115
		c5.632,0,10.199,4.566,10.199,10.199S275.137,348.634,269.504,348.634z"/>
	<path style="fill:#0B6699;" d="M342.407,348.634h-26.114c-5.632,0-10.199-4.566-10.199-10.199s4.567-10.199,10.199-10.199h26.114
		c5.632,0,10.199,4.566,10.199,10.199S348.039,348.634,342.407,348.634z"/>
	<path style="fill:#0B6699;" d="M196.602,386.974h-26.114c-5.632,0-10.199-4.566-10.199-10.199s4.567-10.199,10.199-10.199h26.114
		c5.632,0,10.199,4.566,10.199,10.199S202.234,386.974,196.602,386.974z"/>
	<path style="fill:#0B6699;" d="M269.504,386.974h-26.115c-5.632,0-10.199-4.566-10.199-10.199s4.567-10.199,10.199-10.199h26.115
		c5.632,0,10.199,4.566,10.199,10.199S275.137,386.974,269.504,386.974z"/>
	<path style="fill:#0B6699;" d="M342.407,386.974h-26.114c-5.632,0-10.199-4.566-10.199-10.199s4.567-10.199,10.199-10.199h26.114
		c5.632,0,10.199,4.566,10.199,10.199S348.039,386.974,342.407,386.974z"/>
	<path style="fill:#0B6699;" d="M196.602,426.029h-26.114c-5.632,0-10.199-4.566-10.199-10.199c0-5.633,4.567-10.199,10.199-10.199
		h26.114c5.632,0,10.199,4.566,10.199,10.199C206.801,421.463,202.234,426.029,196.602,426.029z"/>
	<path style="fill:#0B6699;" d="M269.504,426.029h-26.115c-5.632,0-10.199-4.566-10.199-10.199c0-5.633,4.567-10.199,10.199-10.199
		h26.115c5.632,0,10.199,4.566,10.199,10.199C279.704,421.463,275.137,426.029,269.504,426.029z"/>
	<path style="fill:#0B6699;" d="M342.407,426.029h-26.114c-5.632,0-10.199-4.566-10.199-10.199c0-5.633,4.567-10.199,10.199-10.199
		h26.114c5.632,0,10.199,4.566,10.199,10.199C352.607,421.463,348.039,426.029,342.407,426.029z"/>
	<path style="fill:#0B6699;" d="M196.602,465.084h-26.114c-5.632,0-10.199-4.566-10.199-10.199c0-5.633,4.567-10.199,10.199-10.199
		h26.114c5.632,0,10.199,4.566,10.199,10.199C206.801,460.518,202.234,465.084,196.602,465.084z"/>
	<path style="fill:#0B6699;" d="M269.504,465.084h-26.115c-5.632,0-10.199-4.566-10.199-10.199c0-5.633,4.567-10.199,10.199-10.199
		h26.115c5.632,0,10.199,4.566,10.199,10.199C279.704,460.518,275.137,465.084,269.504,465.084z"/>
	<path style="fill:#0B6699;" d="M342.407,465.084h-26.114c-5.632,0-10.199-4.566-10.199-10.199c0-5.633,4.567-10.199,10.199-10.199
		h26.114c5.632,0,10.199,4.566,10.199,10.199C352.607,460.518,348.039,465.084,342.407,465.084z"/>
	<path style="fill:#0B6699;" d="M297.244,57.116h-4.08c-5.632,0-10.199-4.566-10.199-10.199s4.567-10.199,10.199-10.199h4.08
		c5.632,0,10.199,4.566,10.199,10.199S302.876,57.116,297.244,57.116z"/>
	<path style="fill:#0B6699;" d="M257.467,57.116h-43.857c-5.632,0-10.199-4.566-10.199-10.199s4.567-10.199,10.199-10.199h43.857
		c5.632,0,10.199,4.566,10.199,10.199S263.099,57.116,257.467,57.116z"/>
	<path style="fill:#0B6699;" d="M240.129,304.956h-71.394c-5.632,0-10.199-4.566-10.199-10.199v-29.578
		c0-5.633,4.567-10.199,10.199-10.199h41.817c2.705,0,5.298,1.075,7.212,2.987l29.578,29.578c2.916,2.917,3.789,7.305,2.211,11.115
		C247.973,302.471,244.254,304.956,240.129,304.956z M178.933,284.558h36.571l-9.179-9.179h-27.392V284.558z"/>
	<path style="fill:#0B6699;" d="M344.161,304.956h-41.817c-2.705,0-5.298-1.075-7.212-2.987l-29.578-29.578
		c-2.916-2.917-3.789-7.305-2.211-11.115c1.579-3.811,5.297-6.296,9.423-6.296h71.394c5.632,0,10.199,4.566,10.199,10.199v29.578
		C354.36,300.39,349.793,304.956,344.161,304.956z M306.568,284.558h27.392v-9.179h-36.571L306.568,284.558z"/>
</g>
</svg>