<?xml version="1.0" encoding="iso-8859-1"?>
<!-- Uploaded to: SVG Repo, www.svgrepo.com, Generator: SVG Repo Mixer Tools -->
<svg version="1.1" id="Layer_1" xmlns="http://www.w3.org/2000/svg" xmlns:xlink="http://www.w3.org/1999/xlink" 
	 viewBox="0 0 512 512" xml:space="preserve">
<circle style="fill:#90DFAA;" cx="256" cy="256" r="256"/>
<path style="fill:#2C9984;" d="M508.114,300.639L369.778,162.302L205.145,325.818l-61.487,72.404l113.761,113.761
	C382.942,511.3,487.072,420.29,508.114,300.639z"/>
<polygon style="fill:#FFFFFF;" points="321.253,113.778 143.658,113.778 143.658,398.222 369.778,398.222 369.778,162.302 "/>
<polygon style="fill:#E6F3FF;" points="369.778,162.302 321.253,113.778 237.037,113.778 237.037,398.222 369.778,398.222 "/>
<polygon style="fill:#CFDBE6;" points="321.253,162.304 369.778,162.302 321.253,113.778 "/>
<circle style="fill:#26BEBE;" cx="237.037" cy="215.143" r="37.9"/>
<path style="fill:#1DA09C;" d="M274.937,215.14c0-20.932-16.968-37.9-37.898-37.9v75.798
	C257.969,253.038,274.937,236.07,274.937,215.14z"/>
<path style="fill:#324A5E;" d="M158.868,334.76c0-43.172,34.997-78.169,78.169-78.169s78.169,34.997,78.169,78.169L158.868,334.76
	L158.868,334.76z"/>
<path style="fill:#2B3B4E;" d="M237.037,256.593v78.169h78.167C315.206,291.59,280.209,256.593,237.037,256.593z"/>
<circle style="fill:#FFD15D;" cx="350.815" cy="293.926" r="63.104"/>
<g>
	<path style="fill:#F4A200;" d="M350.815,369.778c-41.825,0-75.852-34.026-75.852-75.852s34.026-75.852,75.852-75.852
		s75.852,34.026,75.852,75.852S392.64,369.778,350.815,369.778z M350.815,243.571c-27.765,0-50.355,22.59-50.355,50.355
		c0,27.765,22.59,50.355,50.355,50.355c27.765,0,50.355-22.59,50.355-50.355C401.17,266.161,378.58,243.571,350.815,243.571z"/>
	<rect x="339.334" y="265.24" style="fill:#F4A200;" width="22.947" height="57.372"/>
</g>
</svg>