<?xml version="1.0" encoding="iso-8859-1"?>
<!-- Uploaded to: SVG Repo, www.svgrepo.com, Generator: SVG Repo Mixer Tools -->
<svg height="800px" width="800px" version="1.1" id="Layer_1" xmlns="http://www.w3.org/2000/svg" xmlns:xlink="http://www.w3.org/1999/xlink" 
	 viewBox="0 0 512 512" xml:space="preserve">
<path style="fill:#7ACBFF;" d="M450.696,501.801H61.304c-28.224,0-51.105-22.881-51.105-51.105V61.304
	c0-28.224,22.881-51.105,51.105-51.105h389.392c28.223,0,51.104,22.881,51.104,51.105v389.392
	C501.801,478.92,478.92,501.801,450.696,501.801z"/>
<g>
	<circle style="fill:#FFF1B8;" cx="256" cy="158.955" r="73.28"/>
	<path style="fill:#FFF1B8;" d="M96.566,426.327c0-88.053,71.381-159.434,159.434-159.434s159.434,71.381,159.434,159.434H96.566z"
		/>
</g>
<g>
	<path style="fill:#0B6699;" d="M450.697,512H61.303C27.501,512,0,484.499,0,450.697V61.303C0,27.501,27.501,0,61.303,0h389.392
		C484.499,0,512,27.501,512,61.303v389.392C512,484.499,484.499,512,450.697,512z M61.303,20.398
		c-22.555,0-40.905,18.35-40.905,40.905v389.392c0,22.556,18.35,40.906,40.905,40.906h389.392c22.556,0,40.906-18.35,40.906-40.905
		V61.303c0-22.555-18.35-40.905-40.905-40.905H61.303z"/>
	<path style="fill:#0B6699;" d="M471.203,279.458c-5.633,0-10.199-4.566-10.199-10.199v-5.1c0-5.633,4.566-10.199,10.199-10.199
		c5.633,0,10.199,4.566,10.199,10.199v5.1C481.402,274.892,476.836,279.458,471.203,279.458z"/>
	<path style="fill:#0B6699;" d="M471.203,235.602c-5.633,0-10.199-4.566-10.199-10.199V63.235c0-5.633,4.566-10.199,10.199-10.199
		c5.633,0,10.199,4.566,10.199,10.199v162.167C481.402,231.034,476.836,235.602,471.203,235.602z"/>
	<path style="fill:#0B6699;" d="M256,242.433c-46.03,0-83.479-37.448-83.479-83.479S209.97,75.474,256,75.474
		s83.479,37.448,83.479,83.479C339.479,204.984,302.03,242.433,256,242.433z M256,95.873c-34.783,0-63.081,28.298-63.081,63.081
		s28.298,63.081,63.081,63.081s63.081-28.299,63.081-63.081S290.783,95.873,256,95.873z"/>
	<path style="fill:#0B6699;" d="M415.434,436.526H96.566c-5.633,0-10.199-4.566-10.199-10.199
		c0-93.536,76.097-169.633,169.633-169.633s169.633,76.097,169.633,169.633C425.633,431.96,421.067,436.526,415.434,436.526z
		 M107.11,416.128h297.78c-5.256-77.554-70.027-139.036-148.89-139.036S112.366,338.574,107.11,416.128z"/>
</g>
</svg>